<svg width="32" height="32" viewBox="0 0 32 32" fill="none" xmlns="http://www.w3.org/2000/svg">
<path d="M25.9 6.1C26.275 6.47506 26.4856 6.98367 26.4856 7.514C26.4856 8.04433 26.275 8.55295 25.9 8.928L18.828 16L25.9 23.072C26.2643 23.4492 26.4659 23.9544 26.4614 24.4788C26.4568 25.0032 26.2465 25.5048 25.8757 25.8756C25.5048 26.2465 25.0032 26.4568 24.4788 26.4613C23.9544 26.4659 23.4492 26.2643 23.072 25.9L16 18.828L8.92802 25.9C8.55082 26.2643 8.04561 26.4659 7.52122 26.4613C6.99683 26.4568 6.4952 26.2465 6.12439 25.8756C5.75357 25.5048 5.54323 25.0032 5.53868 24.4788C5.53412 23.9544 5.73571 23.4492 6.10002 23.072L13.172 16L6.10002 8.928C5.73571 8.5508 5.53412 8.04559 5.53868 7.5212C5.54323 6.9968 5.75357 6.49518 6.12439 6.12436C6.4952 5.75355 6.99683 5.54321 7.52122 5.53865C8.04561 5.5341 8.55082 5.73568 8.92802 6.1L16 13.172L23.072 6.1C23.4471 5.72506 23.9557 5.51443 24.486 5.51443C25.0164 5.51443 25.525 5.72506 25.9 6.1V6.1Z" fill="#E63946"/>
</svg>
