<svg width="19" height="27" viewBox="0 0 19 27" fill="none" xmlns="http://www.w3.org/2000/svg">
<g clip-path="url(#clip0_534_518)">
<path d="M5 27C7.484 27 9.5 24.984 9.5 22.5V18H5C2.516 18 0.5 20.016 0.5 22.5C0.5 24.984 2.516 27 5 27Z" fill="#0ACF83"/>
<path d="M0.5 13.5C0.5 11.016 2.516 9 5 9H9.5V18H5C2.516 18 0.5 15.984 0.5 13.5Z" fill="#A259FF"/>
<path d="M0.5 4.5C0.5 2.016 2.516 0 5 0H9.5V9H5C2.516 9 0.5 6.984 0.5 4.5Z" fill="#F24E1E"/>
<path d="M9.5 0H14C16.484 0 18.5 2.016 18.5 4.5C18.5 6.984 16.484 9 14 9H9.5V0Z" fill="#FF7262"/>
<path d="M18.5 13.5C18.5 15.984 16.484 18 14 18C11.516 18 9.5 15.984 9.5 13.5C9.5 11.016 11.516 9 14 9C16.484 9 18.5 11.016 18.5 13.5Z" fill="#1ABCFE"/>
</g>
<defs>
<clipPath id="clip0_534_518">
<rect width="18" height="27" fill="white" transform="translate(0.5)"/>
</clipPath>
</defs>
</svg>
