<svg width="32" height="32" viewBox="0 0 32 32" fill="none" xmlns="http://www.w3.org/2000/svg">
<path d="M10.8125 22.3333C10.8681 22.25 10.8472 22.1597 10.75 22.0625C10.625 21.9653 10.5278 21.9514 10.4583 22.0208C10.4028 22.1042 10.4236 22.1944 10.5208 22.2917C10.6458 22.3889 10.7431 22.4028 10.8125 22.3333ZM10.2292 21.4792C10.1597 21.3819 10.0764 21.3542 9.97917 21.3958C9.89583 21.4514 9.89583 21.5347 9.97917 21.6458C10.0764 21.7569 10.1597 21.7917 10.2292 21.75C10.3125 21.6944 10.3125 21.6042 10.2292 21.4792ZM9.375 20.6458C9.40278 20.5903 9.36806 20.5347 9.27083 20.4792C9.17361 20.4514 9.11806 20.4653 9.10417 20.5208C9.0625 20.5903 9.09028 20.6458 9.1875 20.6875C9.29861 20.7153 9.36111 20.7014 9.375 20.6458ZM9.8125 21.125C9.84028 21.1111 9.85069 21.0799 9.84375 21.0313C9.83681 20.9826 9.8125 20.9444 9.77083 20.9167C9.6875 20.8194 9.61806 20.7986 9.5625 20.8542C9.50694 20.9097 9.51389 20.9861 9.58333 21.0833C9.66667 21.1667 9.74306 21.1806 9.8125 21.125ZM11.6042 22.6875C11.6319 22.5903 11.5694 22.5139 11.4167 22.4583C11.2917 22.4167 11.2014 22.4444 11.1458 22.5417C11.1181 22.6389 11.1806 22.7153 11.3333 22.7708C11.4583 22.8125 11.5486 22.7847 11.6042 22.6875ZM12.4792 22.75C12.4792 22.6389 12.3958 22.5833 12.2292 22.5833C12.0903 22.5833 12.0208 22.6389 12.0208 22.75C12.0208 22.8611 12.0972 22.9167 12.25 22.9167C12.4028 22.9167 12.4792 22.8611 12.4792 22.75ZM13.2917 22.6042C13.2639 22.5069 13.1736 22.4722 13.0208 22.5C12.8681 22.5278 12.8056 22.5903 12.8333 22.6875C12.8611 22.7986 12.9444 22.8403 13.0833 22.8125C13.2222 22.7847 13.2917 22.7153 13.2917 22.6042ZM26.6667 16C26.6667 13.0556 25.625 10.5417 23.5417 8.45833C21.4583 6.375 18.9444 5.33333 16 5.33333C13.0556 5.33333 10.5417 6.375 8.45833 8.45833C6.375 10.5417 5.33333 13.0556 5.33333 16C5.33333 18.3194 6.01389 20.4063 7.375 22.2604C8.73611 24.1146 10.4861 25.4028 12.625 26.125C12.875 26.1667 13.059 26.1319 13.1771 26.0208C13.2951 25.9097 13.3542 25.7708 13.3542 25.6042C13.3542 24.8819 13.3472 24.2222 13.3333 23.625C13.25 23.6389 13.1424 23.6563 13.0104 23.6771C12.8785 23.6979 12.6319 23.7118 12.2708 23.7188C11.9097 23.7257 11.5764 23.6979 11.2708 23.6354C10.9653 23.5729 10.6632 23.434 10.3646 23.2188C10.066 23.0035 9.86111 22.7153 9.75 22.3542C9.43056 21.5347 9.03472 21.0208 8.5625 20.8125C8.53472 20.7986 8.50347 20.7743 8.46875 20.7396L8.30208 20.5729L8.15625 20.375L8.23958 20.2188L8.64583 20.1458C8.72917 20.1458 8.83333 20.1597 8.95833 20.1875C9.08333 20.2153 9.29167 20.3229 9.58333 20.5104C9.875 20.6979 10.1042 20.9444 10.2708 21.25C10.4931 21.6389 10.7535 21.9306 11.0521 22.125C11.3507 22.3194 11.6528 22.4167 11.9583 22.4167C12.2639 22.4167 12.5278 22.3924 12.75 22.3438C12.9722 22.2951 13.1806 22.2292 13.375 22.1458C13.4722 21.4931 13.7014 21.0139 14.0625 20.7083C13.3819 20.625 12.7847 20.4965 12.2708 20.3229C11.7569 20.1493 11.25 19.8785 10.75 19.5104C10.25 19.1424 9.86458 18.6146 9.59375 17.9271C9.32292 17.2396 9.1875 16.4097 9.1875 15.4375C9.1875 14.3403 9.55556 13.3889 10.2917 12.5833C9.95833 11.7222 9.99306 10.7778 10.3958 9.75C10.6597 9.66667 11.0382 9.71875 11.5313 9.90625C12.0243 10.0938 12.4444 10.2986 12.7917 10.5208L13.3333 10.8542C14.1389 10.6181 15.0278 10.5 16 10.5C16.9722 10.5 17.8611 10.6181 18.6667 10.8542C18.8194 10.7569 19.0174 10.6319 19.2604 10.4792C19.5035 10.3264 19.8889 10.1458 20.4167 9.9375C20.9444 9.72917 21.3403 9.66667 21.6042 9.75C22.0069 10.7778 22.0417 11.7222 21.7083 12.5833C22.4444 13.3889 22.8125 14.3403 22.8125 15.4375C22.8125 16.2292 22.7153 16.9271 22.5208 17.5313C22.3264 18.1354 22.0799 18.6215 21.7813 18.9896C21.4826 19.3576 21.1111 19.6667 20.6667 19.9167C20.2222 20.1667 19.7882 20.3472 19.3646 20.4583C18.941 20.5694 18.4653 20.6528 17.9375 20.7083C18.4236 21.1389 18.6667 21.7986 18.6667 22.6875C18.6667 23.2431 18.6632 23.8611 18.6563 24.5417C18.6493 25.2222 18.6458 25.5764 18.6458 25.6042C18.6458 25.7708 18.7049 25.9097 18.8229 26.0208C18.941 26.1319 19.125 26.1667 19.375 26.125C21.5139 25.4028 23.2639 24.1146 24.625 22.2604C25.9861 20.4063 26.6667 18.3194 26.6667 16ZM32 6V26C32 27.6528 31.4132 29.066 30.2396 30.2396C29.066 31.4132 27.6528 32 26 32H6C4.34722 32 2.93403 31.4132 1.76042 30.2396C0.586806 29.066 0 27.6528 0 26V6C0 4.34722 0.586806 2.93403 1.76042 1.76042C2.93403 0.586806 4.34722 0 6 0H26C27.6528 0 29.066 0.586806 30.2396 1.76042C31.4132 2.93403 32 4.34722 32 6Z" fill="white"/>
</svg>
