<svg width="328" height="279" viewBox="0 0 328 279" fill="none" xmlns="http://www.w3.org/2000/svg">
<g clip-path="url(#clip0_467_1469)">
<path d="M289.45 277.913L289.457 277.587C289.605 272.132 290.942 266.774 293.376 261.886C295.81 256.999 299.283 252.698 303.552 249.283C305.962 247.387 308.602 245.801 311.409 244.562L311.677 244.443L311.723 244.732C312.266 248.176 313.127 251.692 313.528 253.252L316.217 242.791L316.516 242.705C317.886 242.304 319.345 242.321 320.705 242.755C322.065 243.188 323.264 244.017 324.147 245.136C325.068 246.255 325.632 247.624 325.767 249.066C325.901 250.507 325.6 251.956 324.901 253.225C324.274 254.39 323.658 255.605 323.062 256.779C321.015 260.816 318.898 264.99 315.813 268.234C313.454 270.665 310.58 272.541 307.401 273.724C304.221 274.906 300.817 275.366 297.437 275.069L289.45 277.913Z" fill="#F2F2F2"/>
<path d="M255.927 273.075L251.249 273.074L249.022 255.079L255.928 255.079L255.927 273.075Z" fill="#FFB6B6"/>
<path d="M256.092 277.942L241.704 277.941V277.76C241.704 276.279 242.294 274.858 243.344 273.811C244.395 272.764 245.819 272.176 247.304 272.176H247.305L249.933 270.188L254.836 272.176L256.092 272.176L256.092 277.942Z" fill="#2F2E41"/>
<path d="M304.358 259.931L300.662 262.791L287.838 249.936L293.293 245.714L304.358 259.931Z" fill="#FFB6B6"/>
<path d="M307.481 263.675L296.115 272.471L296.003 272.328C295.093 271.158 294.685 269.675 294.871 268.205C295.057 266.736 295.82 265.401 296.994 264.492L296.994 264.492L297.847 261.315L302.944 259.888L303.936 259.12L307.481 263.675Z" fill="#2F2E41"/>
<path d="M284.12 172.864C284.12 172.864 283.801 177.736 283.398 184.701C283.332 185.843 283.721 187.084 283.652 188.327C283.606 189.151 283.101 189.953 283.054 190.812C283.005 191.72 283.701 192.523 283.652 193.461C283.603 194.378 282.809 195.429 282.761 196.367C282.245 206.464 280.375 218.552 282.248 221.931C283.17 223.597 297.226 246.668 297.226 246.668C297.226 246.668 290.673 256.469 288.801 253.202C286.328 248.887 267.269 228.699 267.269 224.844C267.269 220.993 262.86 192.135 262.86 192.135L259.786 209.213L258.376 212.597L258.819 214.583L257.908 217.264L257.859 219.917L256.972 224.844C256.972 224.844 259.64 263.228 258.137 264.296C256.63 265.37 249.333 267.298 248.472 265.37C247.615 263.442 244.334 225.311 244.334 225.311C244.334 225.311 243.435 207.836 242.461 191.594C242.405 190.651 241.741 189.512 241.689 188.584C241.628 187.505 242.05 186.105 241.993 185.06C241.933 183.86 241.399 183.015 241.347 181.867C240.95 172.995 240.889 166.003 241.6 164.939C243.749 161.728 245.682 159.161 245.682 159.161C245.682 159.161 276.387 151.665 284.12 161.299L284.12 172.864Z" fill="#2F2E41"/>
<path d="M256.503 80.979L263.907 80.5662L269.486 83.6031L285.002 171.215C285.002 171.215 269.141 178.525 259.312 175.725C249.482 172.925 239.131 173.082 239.131 173.082L246.674 89.3801L252.759 83.7793L256.503 80.979Z" fill="#E6E6E6"/>
<path d="M268.855 82.8364L280.315 87.5029C282.075 87.5884 283.753 88.2655 285.078 89.4238C286.402 90.5821 287.295 92.1534 287.609 93.8819L286.849 116.449L282.716 127.185L285.663 151.642L284.12 154.722L285.453 157.866C283.496 161.035 283.895 165.187 285.056 169.658H283.652L280.843 169.191C280.843 169.191 274.66 171.331 273.394 163.644C270.078 143.521 268.205 152.389 268.205 152.389L266.573 89.953L268.855 82.8364Z" fill="#3F3D56"/>
<path d="M253.227 82.8459L242.522 94.0372C240.762 94.1227 239.083 94.7998 237.759 95.9581C236.434 97.1164 235.542 98.6877 235.228 100.416L239.653 135.12L237.576 148.436L238.717 151.455L237.891 154.868L239.185 157.989L238.249 162.19L239.653 168.257L246.674 166.391L246.62 161.414L248.493 93.7384L253.227 82.8459Z" fill="#3F3D56"/>
<path d="M217.526 140.374L202.943 150.925C202.385 150.954 201.843 151.129 201.374 151.433C200.905 151.736 200.524 152.158 200.271 152.655C200.017 153.152 199.899 153.707 199.928 154.264C199.958 154.821 200.134 155.36 200.439 155.828C200.745 156.295 201.168 156.674 201.667 156.927C202.165 157.179 202.722 157.297 203.281 157.266C203.839 157.236 204.38 157.06 204.848 156.755C205.317 156.45 205.697 156.027 205.949 155.53L225.779 144.974L217.526 140.374Z" fill="#FFB6B6"/>
<path d="M237.781 95.9143C235.009 97.189 228.162 129.823 226.153 130.515C224.144 131.207 224.911 131.103 224.629 131.68C224.347 132.258 224.279 134.844 222.35 135.148C220.421 135.452 210.229 144.717 210.229 144.717L212.812 153.304C212.812 153.304 232.425 142.131 237.833 135.944C243.241 129.757 246.152 97.939 246.152 97.939L246.706 94.7646C246.706 94.7646 240.552 94.6396 237.781 95.9143Z" fill="#3F3D56"/>
<path d="M281.762 136.065L268.766 148.509C268.217 148.613 267.705 148.861 267.282 149.226C266.859 149.591 266.539 150.06 266.356 150.587C266.173 151.114 266.132 151.68 266.238 152.228C266.344 152.776 266.593 153.286 266.959 153.707C267.326 154.129 267.797 154.446 268.326 154.628C268.855 154.81 269.422 154.85 269.971 154.744C270.521 154.638 271.032 154.389 271.454 154.023C271.876 153.657 272.194 153.187 272.376 152.659L290.569 139.495L281.762 136.065Z" fill="#FFB6B6"/>
<path d="M283.651 98.7146C281.081 100.356 290.848 124.161 288.952 125.121C287.057 126.081 287.803 125.873 287.603 126.483C287.403 127.094 287.691 129.666 285.821 130.23C283.952 130.794 275.129 141.364 275.129 141.364L278.868 149.517C278.868 149.517 296.761 135.771 301.268 128.904C305.775 122.036 302.842 119.717 302.842 119.717C297.251 107.875 292.021 88.5629 284.119 89.8468C284.119 89.8468 286.221 97.0734 283.651 98.7146Z" fill="#3F3D56"/>
<path d="M258.091 79.1312C265.021 79.1312 270.639 73.5297 270.639 66.6198C270.639 59.7099 265.021 54.1084 258.091 54.1084C251.162 54.1084 245.544 59.7099 245.544 66.6198C245.544 73.5297 251.162 79.1312 258.091 79.1312Z" fill="#FFB6B6"/>
<path d="M270.798 74.6816C270.798 74.6816 268.034 75.4371 266.426 75.8578C266.509 74.6645 267.027 73.5475 267.291 72.3801C267.554 71.2128 267.497 69.8399 266.627 69.0157C265.757 68.1915 263.945 68.5126 263.804 69.6986C263.068 68.1292 262.331 66.557 261.592 64.9819C259.484 69.3071 255.176 65.6212 250.478 66.7141C248.082 67.277 245.078 67.0352 243.812 64.9296C244.524 64.3342 245.123 63.6171 245.583 62.812C244.852 63.0256 244.093 63.1216 243.332 63.0963C243.349 62.3431 243.548 61.6051 243.911 60.9444C244.274 60.2837 244.791 59.7196 245.418 59.2995C246.094 58.8591 244.421 57.2918 245.011 56.7401C246.22 55.6141 247.032 56.3787 247.746 54.8945C248.207 53.9766 248.917 53.2062 249.795 52.6709C250.673 52.1355 251.685 51.8567 252.714 51.8662C254.767 51.9142 258.447 51.8944 259.243 53.7807C261.782 52.1234 265.317 52.5916 267.799 54.3302C269.861 55.7697 272.209 60.1209 272.727 62.5772C273.245 65.0334 272.104 72.5409 270.798 74.6816Z" fill="#2F2E41"/>
<path d="M115.38 47.1412H35.0364C33.5914 47.1597 32.1929 46.6317 31.1226 45.6635C30.0523 44.6953 29.3896 43.3587 29.2678 41.9229C29.2157 41.157 29.3219 40.3887 29.5799 39.6654C29.8379 38.9422 30.2422 38.2796 30.7676 37.7186C31.2931 37.1576 31.9285 36.7102 32.6345 36.4042C33.3405 36.0982 34.102 35.9401 34.8718 35.9397H115.38C116.87 35.9397 118.299 36.5298 119.352 37.5801C120.405 38.6305 120.997 40.055 120.997 41.5405C120.997 43.0259 120.405 44.4504 119.352 45.5008C118.299 46.5511 116.87 47.1412 115.38 47.1412H115.38Z" fill="#E63946"/>
<path d="M161.596 56.2423H29.4886C29.3644 56.2423 29.2454 56.1931 29.1576 56.1056C29.0698 56.0181 29.0205 55.8994 29.0205 55.7756C29.0205 55.6518 29.0698 55.5331 29.1576 55.4455C29.2454 55.358 29.3644 55.3088 29.4886 55.3088H161.596C161.72 55.3088 161.839 55.358 161.926 55.4455C162.014 55.5331 162.064 55.6518 162.064 55.7756C162.064 55.8994 162.014 56.0181 161.926 56.1056C161.839 56.1931 161.72 56.2423 161.596 56.2423Z" fill="#E6E6E6"/>
<path d="M156.102 47.3745H34.8714C33.3197 47.3745 31.8315 46.7599 30.7342 45.6658C29.6369 44.5717 29.0205 43.0877 29.0205 41.5404C29.0205 39.9931 29.6369 38.5092 30.7342 37.4151C31.8315 36.321 33.3197 35.7063 34.8714 35.7063H156.102C157.654 35.7063 159.142 36.321 160.239 37.4151C161.337 38.5092 161.953 39.9931 161.953 41.5404C161.953 43.0877 161.337 44.5717 160.239 45.6658C159.142 46.7599 157.654 47.3745 156.102 47.3745ZM34.8714 36.6398C33.5679 36.6398 32.3178 37.1561 31.3962 38.0751C30.4745 38.9942 29.9567 40.2407 29.9567 41.5404C29.9567 42.8402 30.4745 44.0867 31.3962 45.0057C32.3178 45.9248 33.5679 46.4411 34.8714 46.4411H156.102C157.406 46.4411 158.656 45.9248 159.577 45.0057C160.499 44.0867 161.017 42.8402 161.017 41.5404C161.017 40.2407 160.499 38.9942 159.577 38.0751C158.656 37.1561 157.406 36.6398 156.102 36.6398H34.8714Z" fill="#F2F2F2"/>
<path d="M79.3387 91.0138H35.0364C33.5914 91.0323 32.1929 90.5043 31.1226 89.5361C30.0523 88.5679 29.3896 87.2313 29.2678 85.7954C29.2157 85.0296 29.3219 84.2612 29.5799 83.538C29.8379 82.8148 30.2422 82.1522 30.7676 81.5912C31.2931 81.0302 31.9285 80.5828 32.6345 80.2768C33.3405 79.9708 34.102 79.8127 34.8718 79.8123H79.3387C80.8284 79.8123 82.257 80.4023 83.3104 81.4527C84.3638 82.503 84.9555 83.9276 84.9555 85.413C84.9555 86.8984 84.3638 88.323 83.3104 89.3733C82.257 90.4237 80.8284 91.0138 79.3387 91.0138H79.3387Z" fill="#E63946"/>
<path d="M161.596 100.115H29.4886C29.3644 100.115 29.2454 100.066 29.1576 99.9782C29.0698 99.8906 29.0205 99.7719 29.0205 99.6481C29.0205 99.5243 29.0698 99.4056 29.1576 99.3181C29.2454 99.2306 29.3644 99.1814 29.4886 99.1814H161.596C161.72 99.1814 161.839 99.2306 161.926 99.3181C162.014 99.4056 162.064 99.5243 162.064 99.6481C162.064 99.7719 162.014 99.8906 161.926 99.9782C161.839 100.066 161.72 100.115 161.596 100.115Z" fill="#E6E6E6"/>
<path d="M156.102 91.2471H34.8714C33.3197 91.2471 31.8315 90.6324 30.7342 89.5383C29.6369 88.4442 29.0205 86.9603 29.0205 85.413C29.0205 83.8657 29.6369 82.3817 30.7342 81.2876C31.8315 80.1935 33.3197 79.5789 34.8714 79.5789H156.102C157.654 79.5789 159.142 80.1935 160.239 81.2876C161.337 82.3817 161.953 83.8657 161.953 85.413C161.953 86.9603 161.337 88.4442 160.239 89.5383C159.142 90.6324 157.654 91.2471 156.102 91.2471ZM34.8714 80.5123C33.5679 80.5123 32.3178 81.0286 31.3962 81.9477C30.4745 82.8667 29.9567 84.1132 29.9567 85.413C29.9567 86.7127 30.4745 87.9592 31.3962 88.8783C32.3178 89.7973 33.5679 90.3136 34.8714 90.3136H156.102C157.406 90.3136 158.656 89.7973 159.577 88.8783C160.499 87.9592 161.017 86.7127 161.017 85.413C161.017 84.1132 160.499 82.8667 159.577 81.9477C158.656 81.0286 157.406 80.5123 156.102 80.5123H34.8714Z" fill="#F2F2F2"/>
<path d="M138.784 134.886H35.0364C33.5914 134.905 32.1929 134.377 31.1226 133.409C30.0523 132.44 29.3896 131.104 29.2678 129.668C29.2157 128.902 29.3219 128.134 29.5799 127.411C29.8379 126.687 30.2422 126.025 30.7676 125.464C31.2931 124.903 31.9285 124.455 32.6345 124.149C33.3405 123.843 34.102 123.685 34.8718 123.685H138.784C140.274 123.685 141.702 124.275 142.756 125.325C143.809 126.376 144.401 127.8 144.401 129.286C144.401 130.771 143.809 132.196 142.756 133.246C141.702 134.296 140.274 134.886 138.784 134.886H138.784Z" fill="#E63946"/>
<path d="M161.596 143.988H29.4886C29.3644 143.988 29.2454 143.938 29.1576 143.851C29.0698 143.763 29.0205 143.645 29.0205 143.521C29.0205 143.397 29.0698 143.278 29.1576 143.191C29.2454 143.103 29.3644 143.054 29.4886 143.054H161.596C161.72 143.054 161.839 143.103 161.926 143.191C162.014 143.278 162.064 143.397 162.064 143.521C162.064 143.645 162.014 143.763 161.926 143.851C161.839 143.938 161.72 143.988 161.596 143.988Z" fill="#E6E6E6"/>
<path d="M156.102 135.12H34.8714C33.3197 135.12 31.8315 134.505 30.7342 133.411C29.6369 132.317 29.0205 130.833 29.0205 129.286C29.0205 127.738 29.6369 126.254 30.7342 125.16C31.8315 124.066 33.3197 123.451 34.8714 123.451H156.102C157.654 123.451 159.142 124.066 160.239 125.16C161.337 126.254 161.953 127.738 161.953 129.286C161.953 130.833 161.337 132.317 160.239 133.411C159.142 134.505 157.654 135.12 156.102 135.12ZM34.8714 124.385C33.5679 124.385 32.3178 124.901 31.3962 125.82C30.4745 126.739 29.9567 127.986 29.9567 129.286C29.9567 130.585 30.4745 131.832 31.3962 132.751C32.3178 133.67 33.5679 134.186 34.8714 134.186H156.102C157.406 134.186 158.656 133.67 159.577 132.751C160.499 131.832 161.017 130.585 161.017 129.286C161.017 127.986 160.499 126.739 159.577 125.82C158.656 124.901 157.406 124.385 156.102 124.385H34.8714Z" fill="#F2F2F2"/>
<path d="M107.756 41.4485H106.82V5.49023H174.53V6.42369H107.756V41.4485Z" fill="#F2F2F2"/>
<path d="M177.425 11.151C180.513 11.151 183.016 8.65477 183.016 5.5755C183.016 2.49624 180.513 0 177.425 0C174.336 0 171.833 2.49624 171.833 5.5755C171.833 8.65477 174.336 11.151 177.425 11.151Z" fill="#F2F2F2"/>
<path d="M75.2591 85.3211H76.1953V64.7649H8.48535V65.6984H75.2591V85.3211Z" fill="#F2F2F2"/>
<path d="M5.59154 70.4257C8.67967 70.4257 11.1831 67.9294 11.1831 64.8502C11.1831 61.7709 8.67967 59.2747 5.59154 59.2747C2.50342 59.2747 0 61.7709 0 64.8502C0 67.9294 2.50342 70.4257 5.59154 70.4257Z" fill="#F2F2F2"/>
<path d="M138.649 130.778H137.713V156.468H195.125V155.535H138.649V130.778Z" fill="#F2F2F2"/>
<path d="M198.02 161.958C201.108 161.958 203.612 159.462 203.612 156.383C203.612 153.303 201.108 150.807 198.02 150.807C194.932 150.807 192.429 153.303 192.429 156.383C192.429 159.462 194.932 161.958 198.02 161.958Z" fill="#F2F2F2"/>
<path d="M327.443 278.857L200.244 279C200.171 279 200.099 278.986 200.031 278.958C199.963 278.93 199.901 278.889 199.849 278.838C199.797 278.786 199.756 278.725 199.728 278.657C199.7 278.59 199.686 278.517 199.686 278.444C199.686 278.371 199.7 278.299 199.728 278.231C199.756 278.164 199.797 278.102 199.849 278.051C199.901 277.999 199.963 277.958 200.031 277.93C200.099 277.903 200.171 277.888 200.244 277.889L327.443 277.745C327.591 277.745 327.733 277.804 327.837 277.908C327.942 278.012 328 278.153 328 278.301C328 278.448 327.942 278.59 327.837 278.694C327.733 278.798 327.591 278.857 327.443 278.857Z" fill="#CACACA"/>
<path d="M276.2 82.8472C275.908 82.391 275.45 82.066 274.922 81.9412C274.394 81.8163 273.838 81.9015 273.371 82.1786C274.06 81.2251 273.541 79.5958 272.463 78.9372C271.241 78.191 269.697 78.3146 268.272 78.463L256.591 79.6796C255.244 79.8199 253.86 79.9711 252.661 80.5989C251.462 81.2267 250.475 82.4519 250.545 83.8005C249.629 83.4655 248.651 83.3333 247.679 83.413C246.719 83.5639 245.772 84.2637 245.669 85.2276C245.505 86.7744 247.348 87.6676 248.849 88.0917C251.635 88.879 254.422 89.6663 257.209 90.4537L256.35 90.6368C261.834 91.1148 267.354 90.3185 272.477 88.3104C273.651 87.8488 274.84 87.296 275.662 86.3413C276.484 85.3865 276.843 83.9301 276.2 82.8472Z" fill="#E6E6E6"/>
</g>
<defs>
<clipPath id="clip0_467_1469">
<rect width="328" height="279" fill="white"/>
</clipPath>
</defs>
</svg>
