<svg width="328" height="260" viewBox="0 0 328 260" fill="none" xmlns="http://www.w3.org/2000/svg">
<g clip-path="url(#clip0_466_1037)">
<path d="M191.059 46.3856C197.207 46.3856 202.19 40.9789 202.19 34.3095C202.19 27.6401 197.207 22.2334 191.059 22.2334C184.912 22.2334 179.929 27.6401 179.929 34.3095C179.929 40.9789 184.912 46.3856 191.059 46.3856Z" fill="#F2F2F2"/>
<path d="M277.404 225.609C293.948 211.937 301.851 188.963 296.904 167.047C296.781 166.502 296.651 165.959 296.514 165.417C293.235 152.408 285.121 140.044 273.295 135.887C263.365 132.397 252.527 135.081 242.168 133.693C221.832 130.969 206.066 113.117 194.973 94.4269C183.88 75.7365 175.355 54.8151 160.615 39.3741C136.317 13.9221 96.6828 8.44228 66.558 25.0096C36.4331 41.577 17.2439 78.3331 18.0623 114.965C18.8807 151.597 38.925 186.62 68.0343 205.202C78.7279 212.028 91.096 216.864 103.405 215.172C114.085 213.703 123.789 207.477 134.419 205.629C151.132 202.723 167.738 210.921 182.193 220.474C196.649 230.028 210.611 241.351 227.038 245.78C242.988 250.081 262.748 237.72 277.404 225.609Z" fill="#F2F2F2"/>
<path d="M253.633 25.7789C253.27 25.5165 252.904 25.2678 252.541 25.0145C242.057 17.74 230.82 11.8303 219.062 7.40742L216.336 48.2117H199.053V1.45095C197.965 1.20672 196.868 0.976064 195.772 0.758972V48.2117H175.233C163.926 48.2117 153.082 43.3385 145.087 34.6642C137.091 25.9899 132.6 14.2249 132.6 1.95755V1.95751C131.499 2.21531 130.407 2.4912 129.315 2.78518V48.2117H112.586L109.989 9.30246C97.9057 14.3301 86.4345 20.9417 75.8306 28.99C75.6471 29.1257 75.4637 29.2659 75.2845 29.4016C74.3632 30.1026 73.4544 30.8172 72.5498 31.5409V187.21H121.853L120.982 174.116L116.188 102.227H212.73L207.936 174.116L207.065 187.21H255.822V27.3528C255.096 26.8191 254.367 26.2945 253.633 25.7789ZM129.315 90.3548H115.396L112.823 51.7757H129.315V90.3548ZM195.772 90.3548H172.394V89.5904C172.394 89.223 172.327 88.8592 172.197 88.5197C172.068 88.1803 171.878 87.872 171.638 87.6124C171.398 87.3528 171.114 87.147 170.801 87.0068C170.488 86.8666 170.152 86.7947 169.813 86.7954H159.65C159.312 86.7952 158.977 86.8674 158.664 87.0078C158.352 87.1482 158.067 87.3541 157.828 87.6137C157.589 87.8733 157.399 88.1814 157.27 88.5206C157.14 88.8598 157.074 89.2233 157.074 89.5904V90.3548H132.6V51.7757H195.772V90.3548ZM199.053 90.3548V51.7757H216.098L213.526 90.3548H199.053Z" fill="#333333"/>
<path d="M0 197.178C3.62144 201.834 7.53843 206.209 11.7223 210.272L316.278 210.724C320.462 206.661 324.379 202.286 328 197.63L0 197.178Z" fill="#333333"/>
<path d="M206.529 155.252V194.014C206.53 194.508 206.711 194.982 207.033 195.331C207.355 195.68 207.791 195.877 208.246 195.877H261.19C261.646 195.877 262.082 195.68 262.404 195.331C262.726 194.982 262.907 194.508 262.908 194.014V155.252C262.907 154.759 262.725 154.286 262.403 153.937C262.082 153.588 261.645 153.392 261.19 153.391H208.246C207.791 153.392 207.355 153.588 207.034 153.937C206.712 154.286 206.53 154.759 206.529 155.252Z" fill="#333333"/>
<path d="M207.771 155.735V193.536C207.771 193.8 207.868 194.053 208.04 194.24C208.212 194.426 208.445 194.531 208.688 194.532H260.749C260.992 194.531 261.225 194.426 261.397 194.24C261.569 194.053 261.666 193.8 261.667 193.536V155.735C261.667 155.47 261.57 155.217 261.398 155.03C261.226 154.843 260.993 154.738 260.749 154.737H208.688C208.445 154.738 208.211 154.843 208.039 155.03C207.867 155.217 207.771 155.47 207.771 155.735Z" fill="#E63946"/>
<path d="M205.421 201.574C205.518 201.706 205.641 201.812 205.782 201.885C205.922 201.958 206.076 201.995 206.231 201.994H262.922C263.077 201.994 263.23 201.956 263.37 201.884C263.51 201.812 263.633 201.706 263.731 201.576C263.828 201.445 263.898 201.292 263.935 201.129C263.971 200.965 263.973 200.795 263.942 200.63L263.062 196.095C263.025 195.91 262.947 195.738 262.833 195.595C262.72 195.451 262.575 195.341 262.412 195.273C262.294 195.223 262.169 195.197 262.042 195.197H207.108C206.981 195.197 206.856 195.223 206.738 195.273C206.575 195.341 206.43 195.451 206.316 195.595C206.203 195.738 206.125 195.91 206.088 196.095L205.208 200.63C205.177 200.795 205.18 200.965 205.216 201.128C205.253 201.291 205.323 201.444 205.421 201.574Z" fill="#2F2E41"/>
<path d="M260.097 197.151H261.436C261.549 197.151 261.64 197.052 261.64 196.93V196.235C261.64 196.113 261.549 196.014 261.436 196.014H260.097C259.985 196.014 259.894 196.113 259.894 196.235V196.93C259.894 197.052 259.985 197.151 260.097 197.151Z" fill="#1D3557"/>
<path d="M256.605 197.151H257.944C258.056 197.151 258.147 197.052 258.147 196.93V196.235C258.147 196.113 258.056 196.014 257.944 196.014H256.605C256.493 196.014 256.401 196.113 256.401 196.235V196.93C256.401 197.052 256.493 197.151 256.605 197.151Z" fill="#1D3557"/>
<path d="M253.113 197.151H254.452C254.564 197.151 254.655 197.052 254.655 196.93V196.235C254.655 196.113 254.564 196.014 254.452 196.014H253.113C253 196.014 252.909 196.113 252.909 196.235V196.93C252.909 197.052 253 197.151 253.113 197.151Z" fill="#1D3557"/>
<path d="M249.621 197.151H250.96C251.072 197.151 251.163 197.052 251.163 196.93V196.235C251.163 196.113 251.072 196.014 250.96 196.014H249.621C249.508 196.014 249.417 196.113 249.417 196.235V196.93C249.417 197.052 249.508 197.151 249.621 197.151Z" fill="#1D3557"/>
<path d="M246.129 197.151H247.468C247.581 197.151 247.672 197.052 247.672 196.93V196.235C247.672 196.113 247.581 196.014 247.468 196.014H246.129C246.017 196.014 245.926 196.113 245.926 196.235V196.93C245.926 197.052 246.017 197.151 246.129 197.151Z" fill="#1D3557"/>
<path d="M242.637 197.151H243.976C244.089 197.151 244.18 197.052 244.18 196.93V196.235C244.18 196.113 244.089 196.014 243.976 196.014H242.637C242.525 196.014 242.434 196.113 242.434 196.235V196.93C242.434 197.052 242.525 197.151 242.637 197.151Z" fill="#1D3557"/>
<path d="M239.145 197.151H240.484C240.596 197.151 240.688 197.052 240.688 196.93V196.235C240.688 196.113 240.596 196.014 240.484 196.014H239.145C239.033 196.014 238.941 196.113 238.941 196.235V196.93C238.941 197.052 239.033 197.151 239.145 197.151Z" fill="#1D3557"/>
<path d="M235.653 197.151H236.992C237.104 197.151 237.195 197.052 237.195 196.93V196.235C237.195 196.113 237.104 196.014 236.992 196.014H235.653C235.54 196.014 235.449 196.113 235.449 196.235V196.93C235.449 197.052 235.54 197.151 235.653 197.151Z" fill="#1D3557"/>
<path d="M232.161 197.151H233.5C233.612 197.151 233.703 197.052 233.703 196.93V196.235C233.703 196.113 233.612 196.014 233.5 196.014H232.161C232.048 196.014 231.957 196.113 231.957 196.235V196.93C231.957 197.052 232.048 197.151 232.161 197.151Z" fill="#1D3557"/>
<path d="M228.668 197.151H230.007C230.12 197.151 230.211 197.052 230.211 196.93V196.235C230.211 196.113 230.12 196.014 230.007 196.014H228.668C228.556 196.014 228.465 196.113 228.465 196.235V196.93C228.465 197.052 228.556 197.151 228.668 197.151Z" fill="#1D3557"/>
<path d="M225.176 197.151H226.515C226.628 197.151 226.719 197.052 226.719 196.93V196.235C226.719 196.113 226.628 196.014 226.515 196.014H225.176C225.064 196.014 224.973 196.113 224.973 196.235V196.93C224.973 197.052 225.064 197.151 225.176 197.151Z" fill="#1D3557"/>
<path d="M221.684 197.151H223.023C223.135 197.151 223.227 197.052 223.227 196.93V196.235C223.227 196.113 223.135 196.014 223.023 196.014H221.684C221.572 196.014 221.48 196.113 221.48 196.235V196.93C221.48 197.052 221.572 197.151 221.684 197.151Z" fill="#1D3557"/>
<path d="M218.192 197.151H219.531C219.643 197.151 219.734 197.052 219.734 196.93V196.235C219.734 196.113 219.643 196.014 219.531 196.014H218.192C218.079 196.014 217.988 196.113 217.988 196.235V196.93C217.988 197.052 218.079 197.151 218.192 197.151Z" fill="#1D3557"/>
<path d="M214.7 197.151H216.039C216.151 197.151 216.242 197.052 216.242 196.93V196.235C216.242 196.113 216.151 196.014 216.039 196.014H214.7C214.587 196.014 214.496 196.113 214.496 196.235V196.93C214.496 197.052 214.587 197.151 214.7 197.151Z" fill="#1D3557"/>
<path d="M211.207 197.151H212.547C212.659 197.151 212.75 197.052 212.75 196.93V196.235C212.75 196.113 212.659 196.014 212.547 196.014H211.207C211.095 196.014 211.004 196.113 211.004 196.235V196.93C211.004 197.052 211.095 197.151 211.207 197.151Z" fill="#1D3557"/>
<path d="M207.716 197.151H209.055C209.168 197.151 209.259 197.052 209.259 196.93V196.235C209.259 196.113 209.168 196.014 209.055 196.014H207.716C207.604 196.014 207.513 196.113 207.513 196.235V196.93C207.513 197.052 207.604 197.151 207.716 197.151Z" fill="#1D3557"/>
<path d="M260.138 199.045H261.477C261.59 199.045 261.681 198.946 261.681 198.824V198.129C261.681 198.007 261.59 197.909 261.477 197.909H260.138C260.026 197.909 259.935 198.007 259.935 198.129V198.824C259.935 198.946 260.026 199.045 260.138 199.045Z" fill="#1D3557"/>
<path d="M256.646 199.045H257.985C258.097 199.045 258.188 198.946 258.188 198.824V198.129C258.188 198.007 258.097 197.909 257.985 197.909H256.646C256.534 197.909 256.442 198.007 256.442 198.129V198.824C256.442 198.946 256.534 199.045 256.646 199.045Z" fill="#1D3557"/>
<path d="M253.155 199.045H254.494C254.606 199.045 254.697 198.946 254.697 198.824V198.129C254.697 198.007 254.606 197.909 254.494 197.909H253.155C253.042 197.909 252.951 198.007 252.951 198.129V198.824C252.951 198.946 253.042 199.045 253.155 199.045Z" fill="#1D3557"/>
<path d="M249.663 199.045H251.002C251.114 199.045 251.205 198.946 251.205 198.824V198.129C251.205 198.007 251.114 197.909 251.002 197.909H249.663C249.55 197.909 249.459 198.007 249.459 198.129V198.824C249.459 198.946 249.55 199.045 249.663 199.045Z" fill="#1D3557"/>
<path d="M246.17 199.045H247.509C247.622 199.045 247.713 198.946 247.713 198.824V198.129C247.713 198.007 247.622 197.909 247.509 197.909H246.17C246.058 197.909 245.967 198.007 245.967 198.129V198.824C245.967 198.946 246.058 199.045 246.17 199.045Z" fill="#1D3557"/>
<path d="M242.678 199.045H244.017C244.13 199.045 244.221 198.946 244.221 198.824V198.129C244.221 198.007 244.13 197.909 244.017 197.909H242.678C242.566 197.909 242.475 198.007 242.475 198.129V198.824C242.475 198.946 242.566 199.045 242.678 199.045Z" fill="#1D3557"/>
<path d="M239.186 199.045H240.525C240.637 199.045 240.729 198.946 240.729 198.824V198.129C240.729 198.007 240.637 197.909 240.525 197.909H239.186C239.074 197.909 238.982 198.007 238.982 198.129V198.824C238.982 198.946 239.074 199.045 239.186 199.045Z" fill="#1D3557"/>
<path d="M235.694 199.045H237.033C237.145 199.045 237.236 198.946 237.236 198.824V198.129C237.236 198.007 237.145 197.909 237.033 197.909H235.694C235.581 197.909 235.49 198.007 235.49 198.129V198.824C235.49 198.946 235.581 199.045 235.694 199.045Z" fill="#1D3557"/>
<path d="M232.202 199.045H233.541C233.653 199.045 233.744 198.946 233.744 198.824V198.129C233.744 198.007 233.653 197.909 233.541 197.909H232.202C232.089 197.909 231.998 198.007 231.998 198.129V198.824C231.998 198.946 232.089 199.045 232.202 199.045Z" fill="#1D3557"/>
<path d="M228.709 199.045H230.048C230.161 199.045 230.252 198.946 230.252 198.824V198.129C230.252 198.007 230.161 197.909 230.048 197.909H228.709C228.597 197.909 228.506 198.007 228.506 198.129V198.824C228.506 198.946 228.597 199.045 228.709 199.045Z" fill="#1D3557"/>
<path d="M225.217 199.045H226.556C226.669 199.045 226.76 198.946 226.76 198.824V198.129C226.76 198.007 226.669 197.909 226.556 197.909H225.217C225.105 197.909 225.014 198.007 225.014 198.129V198.824C225.014 198.946 225.105 199.045 225.217 199.045Z" fill="#1D3557"/>
<path d="M221.725 199.045H223.064C223.176 199.045 223.268 198.946 223.268 198.824V198.129C223.268 198.007 223.176 197.909 223.064 197.909H221.725C221.613 197.909 221.522 198.007 221.522 198.129V198.824C221.522 198.946 221.613 199.045 221.725 199.045Z" fill="#1D3557"/>
<path d="M218.233 199.045H219.572C219.684 199.045 219.775 198.946 219.775 198.824V198.129C219.775 198.007 219.684 197.909 219.572 197.909H218.233C218.12 197.909 218.029 198.007 218.029 198.129V198.824C218.029 198.946 218.12 199.045 218.233 199.045Z" fill="#1D3557"/>
<path d="M214.742 199.045H216.081C216.193 199.045 216.284 198.946 216.284 198.824V198.129C216.284 198.007 216.193 197.909 216.081 197.909H214.742C214.629 197.909 214.538 198.007 214.538 198.129V198.824C214.538 198.946 214.629 199.045 214.742 199.045Z" fill="#1D3557"/>
<path d="M211.249 199.045H212.588C212.701 199.045 212.792 198.946 212.792 198.824V198.129C212.792 198.007 212.701 197.909 212.588 197.909H211.249C211.137 197.909 211.046 198.007 211.046 198.129V198.824C211.046 198.946 211.137 199.045 211.249 199.045Z" fill="#1D3557"/>
<path d="M207.757 199.045H209.096C209.209 199.045 209.3 198.946 209.3 198.824V198.129C209.3 198.007 209.209 197.909 209.096 197.909H207.757C207.645 197.909 207.554 198.007 207.554 198.129V198.824C207.554 198.946 207.645 199.045 207.757 199.045Z" fill="#1D3557"/>
<path d="M231.154 201.318H244.715C244.828 201.318 244.919 201.219 244.919 201.098V200.403C244.919 200.281 244.828 200.182 244.715 200.182H231.154C231.042 200.182 230.951 200.281 230.951 200.403V201.098C230.951 201.219 231.042 201.318 231.154 201.318Z" fill="#1D3557"/>
<path d="M216.786 163.007H215.601C215.242 163.007 214.95 163.323 214.95 163.713C214.95 164.103 215.242 164.419 215.601 164.419H216.786C217.146 164.419 217.437 164.103 217.437 163.713C217.437 163.323 217.146 163.007 216.786 163.007Z" fill="white"/>
<path d="M230.344 163.007H229.159C228.799 163.007 228.508 163.323 228.508 163.713C228.508 164.103 228.799 164.419 229.159 164.419H230.344C230.703 164.419 230.995 164.103 230.995 163.713C230.995 163.323 230.703 163.007 230.344 163.007Z" fill="white"/>
<path d="M234.186 163.007H233C232.641 163.007 232.35 163.323 232.35 163.713C232.35 164.103 232.641 164.419 233 164.419H234.186C234.545 164.419 234.837 164.103 234.837 163.713C234.837 163.323 234.545 163.007 234.186 163.007Z" fill="white"/>
<path d="M226.656 162.889H219.288C218.929 162.889 218.638 163.205 218.638 163.595C218.638 163.985 218.929 164.301 219.288 164.301H226.656C227.016 164.301 227.307 163.985 227.307 163.595C227.307 163.205 227.016 162.889 226.656 162.889Z" fill="white"/>
<path d="M244.733 162.889H237.366C237.006 162.889 236.715 163.205 236.715 163.595C236.715 163.985 237.006 164.301 237.366 164.301H244.733C245.093 164.301 245.384 163.985 245.384 163.595C245.384 163.205 245.093 162.889 244.733 162.889Z" fill="white"/>
<path d="M220.402 166.194H219.216C218.857 166.194 218.565 166.51 218.565 166.9C218.565 167.29 218.857 167.606 219.216 167.606H220.402C220.761 167.606 221.052 167.29 221.052 166.9C221.052 166.51 220.761 166.194 220.402 166.194Z" fill="white"/>
<path d="M233.959 166.194H232.774C232.414 166.194 232.123 166.51 232.123 166.9C232.123 167.29 232.414 167.606 232.774 167.606H233.959C234.319 167.606 234.61 167.29 234.61 166.9C234.61 166.51 234.319 166.194 233.959 166.194Z" fill="white"/>
<path d="M237.801 166.194H236.616C236.256 166.194 235.965 166.51 235.965 166.9C235.965 167.29 236.256 167.606 236.616 167.606H237.801C238.16 167.606 238.452 167.29 238.452 166.9C238.452 166.51 238.16 166.194 237.801 166.194Z" fill="white"/>
<path d="M230.271 166.076H222.904C222.544 166.076 222.253 166.392 222.253 166.782C222.253 167.172 222.544 167.488 222.904 167.488H230.271C230.631 167.488 230.922 167.172 230.922 166.782C230.922 166.392 230.631 166.076 230.271 166.076Z" fill="white"/>
<path d="M248.349 166.076H240.981C240.621 166.076 240.33 166.392 240.33 166.782C240.33 167.172 240.621 167.488 240.981 167.488H248.349C248.708 167.488 248.999 167.172 248.999 166.782C248.999 166.392 248.708 166.076 248.349 166.076Z" fill="white"/>
<path d="M224.017 169.381H222.831C222.472 169.381 222.181 169.697 222.181 170.087C222.181 170.477 222.472 170.793 222.831 170.793H224.017C224.376 170.793 224.668 170.477 224.668 170.087C224.668 169.697 224.376 169.381 224.017 169.381Z" fill="white"/>
<path d="M237.574 169.381H236.389C236.03 169.381 235.738 169.697 235.738 170.087C235.738 170.477 236.03 170.793 236.389 170.793H237.574C237.934 170.793 238.225 170.477 238.225 170.087C238.225 169.697 237.934 169.381 237.574 169.381Z" fill="white"/>
<path d="M241.416 169.381H240.231C239.871 169.381 239.58 169.697 239.58 170.087C239.58 170.477 239.871 170.793 240.231 170.793H241.416C241.776 170.793 242.067 170.477 242.067 170.087C242.067 169.697 241.776 169.381 241.416 169.381Z" fill="white"/>
<path d="M233.888 169.263H226.52C226.16 169.263 225.869 169.579 225.869 169.969C225.869 170.359 226.16 170.675 226.52 170.675H233.888C234.247 170.675 234.538 170.359 234.538 169.969C234.538 169.579 234.247 169.263 233.888 169.263Z" fill="white"/>
<path d="M251.964 169.263H244.596C244.237 169.263 243.945 169.579 243.945 169.969C243.945 170.359 244.237 170.675 244.596 170.675H251.964C252.323 170.675 252.615 170.359 252.615 169.969C252.615 169.579 252.323 169.263 251.964 169.263Z" fill="white"/>
<path d="M227.632 172.568H226.447C226.087 172.568 225.796 172.884 225.796 173.274C225.796 173.664 226.087 173.98 226.447 173.98H227.632C227.992 173.98 228.283 173.664 228.283 173.274C228.283 172.884 227.992 172.568 227.632 172.568Z" fill="white"/>
<path d="M241.191 172.568H240.005C239.646 172.568 239.354 172.884 239.354 173.274C239.354 173.664 239.646 173.98 240.005 173.98H241.191C241.55 173.98 241.841 173.664 241.841 173.274C241.841 172.884 241.55 172.568 241.191 172.568Z" fill="white"/>
<path d="M245.032 172.568H243.846C243.487 172.568 243.195 172.884 243.195 173.274C243.195 173.664 243.487 173.98 243.846 173.98H245.032C245.391 173.98 245.682 173.664 245.682 173.274C245.682 172.884 245.391 172.568 245.032 172.568Z" fill="white"/>
<path d="M237.503 172.45H230.135C229.776 172.45 229.484 172.766 229.484 173.156C229.484 173.546 229.776 173.862 230.135 173.862H237.503C237.862 173.862 238.154 173.546 238.154 173.156C238.154 172.766 237.862 172.45 237.503 172.45Z" fill="white"/>
<path d="M230.344 185.241H229.159C228.799 185.241 228.508 185.557 228.508 185.947C228.508 186.337 228.799 186.653 229.159 186.653H230.344C230.703 186.653 230.995 186.337 230.995 185.947C230.995 185.557 230.703 185.241 230.344 185.241Z" fill="white"/>
<path d="M234.186 185.241H233C232.641 185.241 232.35 185.557 232.35 185.947C232.35 186.337 232.641 186.653 233 186.653H234.186C234.545 186.653 234.837 186.337 234.837 185.947C234.837 185.557 234.545 185.241 234.186 185.241Z" fill="white"/>
<path d="M244.733 185.359H237.366C237.006 185.359 236.715 185.675 236.715 186.065C236.715 186.455 237.006 186.771 237.366 186.771H244.733C245.093 186.771 245.384 186.455 245.384 186.065C245.384 185.675 245.093 185.359 244.733 185.359Z" fill="white"/>
<path d="M216.786 185.241H215.601C215.242 185.241 214.95 185.557 214.95 185.947C214.95 186.337 215.242 186.653 215.601 186.653H216.786C217.146 186.653 217.437 186.337 217.437 185.947C217.437 185.557 217.146 185.241 216.786 185.241Z" fill="white"/>
<path d="M226.656 185.359H219.288C218.929 185.359 218.638 185.675 218.638 186.065C218.638 186.455 218.929 186.771 219.288 186.771H226.656C227.016 186.771 227.307 186.455 227.307 186.065C227.307 185.675 227.016 185.359 226.656 185.359Z" fill="white"/>
<path d="M220.402 182.054H219.216C218.857 182.054 218.565 182.37 218.565 182.76C218.565 183.15 218.857 183.466 219.216 183.466H220.402C220.761 183.466 221.052 183.15 221.052 182.76C221.052 182.37 220.761 182.054 220.402 182.054Z" fill="white"/>
<path d="M233.959 182.054H232.774C232.414 182.054 232.123 182.37 232.123 182.76C232.123 183.15 232.414 183.466 232.774 183.466H233.959C234.319 183.466 234.61 183.15 234.61 182.76C234.61 182.37 234.319 182.054 233.959 182.054Z" fill="white"/>
<path d="M237.801 182.054H236.616C236.256 182.054 235.965 182.37 235.965 182.76C235.965 183.15 236.256 183.466 236.616 183.466H237.801C238.16 183.466 238.452 183.15 238.452 182.76C238.452 182.37 238.16 182.054 237.801 182.054Z" fill="white"/>
<path d="M230.271 182.172H222.904C222.544 182.172 222.253 182.488 222.253 182.878C222.253 183.268 222.544 183.584 222.904 183.584H230.271C230.631 183.584 230.922 183.268 230.922 182.878C230.922 182.488 230.631 182.172 230.271 182.172Z" fill="white"/>
<path d="M224.017 178.867H222.831C222.472 178.867 222.181 179.183 222.181 179.573C222.181 179.963 222.472 180.279 222.831 180.279H224.017C224.376 180.279 224.668 179.963 224.668 179.573C224.668 179.183 224.376 178.867 224.017 178.867Z" fill="white"/>
<path d="M237.574 178.867H236.389C236.03 178.867 235.738 179.183 235.738 179.573C235.738 179.963 236.03 180.279 236.389 180.279H237.574C237.934 180.279 238.225 179.963 238.225 179.573C238.225 179.183 237.934 178.867 237.574 178.867Z" fill="white"/>
<path d="M241.416 178.867H240.231C239.871 178.867 239.58 179.183 239.58 179.573C239.58 179.963 239.871 180.279 240.231 180.279H241.416C241.776 180.279 242.067 179.963 242.067 179.573C242.067 179.183 241.776 178.867 241.416 178.867Z" fill="white"/>
<path d="M233.888 178.985H226.52C226.16 178.985 225.869 179.301 225.869 179.691C225.869 180.081 226.16 180.397 226.52 180.397H233.888C234.247 180.397 234.538 180.081 234.538 179.691C234.538 179.301 234.247 178.985 233.888 178.985Z" fill="white"/>
<path d="M227.632 175.68H226.447C226.087 175.68 225.796 175.996 225.796 176.386C225.796 176.776 226.087 177.092 226.447 177.092H227.632C227.992 177.092 228.283 176.776 228.283 176.386C228.283 175.996 227.992 175.68 227.632 175.68Z" fill="white"/>
<path d="M241.191 175.68H240.005C239.646 175.68 239.354 175.996 239.354 176.386C239.354 176.776 239.646 177.092 240.005 177.092H241.191C241.55 177.092 241.841 176.776 241.841 176.386C241.841 175.996 241.55 175.68 241.191 175.68Z" fill="white"/>
<path d="M245.032 175.68H243.846C243.487 175.68 243.195 175.996 243.195 176.386C243.195 176.776 243.487 177.092 243.846 177.092H245.032C245.391 177.092 245.682 176.776 245.682 176.386C245.682 175.996 245.391 175.68 245.032 175.68Z" fill="white"/>
<path d="M237.503 175.798H230.135C229.776 175.798 229.484 176.114 229.484 176.504C229.484 176.894 229.776 177.21 230.135 177.21H237.503C237.862 177.21 238.154 176.894 238.154 176.504C238.154 176.114 237.862 175.798 237.503 175.798Z" fill="white"/>
<path d="M210.484 222.592L204.919 213.048L222.387 197.941L229.596 189.275C230.533 188.149 231.726 187.309 233.055 186.84C234.385 186.371 235.804 186.289 237.172 186.601C238.54 186.914 239.808 187.611 240.851 188.622C241.893 189.633 242.672 190.923 243.11 192.363C243.76 194.497 243.621 196.822 242.721 198.846C241.821 200.87 240.231 202.436 238.287 203.213L226.886 207.77L210.484 222.592Z" fill="#FFB6B6"/>
<path d="M79.9092 153.393V199.779H109.861V153.393C109.862 153.06 109.764 152.735 109.581 152.466C109.399 152.197 109.142 151.999 108.848 151.901C108.71 151.851 108.565 151.827 108.419 151.828H81.3557C81.166 151.828 80.9781 151.868 80.8027 151.947C80.6273 152.025 80.4679 152.14 80.3335 152.286C80.1992 152.431 80.0925 152.604 80.0197 152.794C79.9469 152.984 79.9094 153.187 79.9092 153.393ZM91.5982 169.332C91.606 168.417 91.9463 167.543 92.5451 166.899C93.1438 166.256 93.9526 165.895 94.7955 165.895C95.6384 165.895 96.4472 166.256 97.046 166.899C97.6448 167.543 97.9851 168.417 97.9929 169.332V174.714C97.9886 175.631 97.6498 176.508 97.0507 177.155C96.4515 177.802 95.6407 178.165 94.7955 178.165C93.9504 178.165 93.1396 177.802 92.5404 177.155C91.9412 176.508 91.6025 175.631 91.5982 174.714V169.332Z" fill="#2F2E41"/>
<path d="M79.8174 198.295V202.768C79.8181 203 79.9029 203.222 80.0535 203.386C80.2041 203.551 80.4084 203.644 80.6219 203.646H109.148C109.362 203.645 109.567 203.552 109.717 203.387C109.868 203.223 109.953 203 109.953 202.768V198.295H79.8174Z" fill="#1D3557"/>
<path d="M32.791 83.5077V168.201C32.7918 169.28 33.1873 170.315 33.8908 171.078C34.5942 171.841 35.548 172.27 36.5428 172.271H152.224C153.218 172.27 154.172 171.841 154.876 171.078C155.579 170.315 155.975 169.28 155.975 168.201V83.5077C155.973 82.4294 155.577 81.396 154.874 80.6339C154.171 79.8718 153.218 79.4431 152.224 79.4418H36.5428C35.5489 79.4431 34.596 79.8718 33.8928 80.6339C33.1896 81.396 32.7934 82.4294 32.791 83.5077Z" fill="#333333"/>
<path d="M35.5049 84.5615V167.156C35.5058 167.733 35.7173 168.285 36.0932 168.693C36.469 169.101 36.9785 169.331 37.51 169.332H151.261C151.792 169.331 152.302 169.101 152.678 168.693C153.053 168.285 153.265 167.733 153.266 167.156V84.5615C153.266 83.9841 153.055 83.4304 152.679 83.0217C152.303 82.613 151.793 82.3828 151.261 82.3815H37.51C36.9779 82.3828 36.4679 82.613 36.092 83.0217C35.7161 83.4304 35.5049 83.9841 35.5049 84.5615Z" fill="white"/>
<path d="M56.6149 203.343C56.7307 203.5 56.8779 203.627 57.0454 203.714C57.2129 203.801 57.3964 203.846 57.5821 203.845H125.256C125.441 203.844 125.624 203.799 125.791 203.713C125.958 203.626 126.105 203.501 126.222 203.345C126.339 203.189 126.422 203.007 126.465 202.811C126.509 202.616 126.512 202.413 126.474 202.216L125.423 196.803C125.38 196.582 125.286 196.377 125.15 196.205C125.015 196.034 124.842 195.902 124.648 195.821C124.507 195.761 124.357 195.731 124.206 195.731H58.6284C58.4772 195.731 58.3273 195.761 58.1865 195.821C57.9921 195.902 57.8193 196.034 57.6839 196.205C57.5484 196.376 57.4547 196.582 57.4112 196.803L56.3607 202.216C56.3233 202.413 56.3267 202.616 56.3707 202.811C56.4147 203.005 56.4981 203.187 56.6149 203.343Z" fill="#2F2E41"/>
<path d="M147.569 93.7593H41.1327C41.0221 93.7566 40.9168 93.7071 40.8394 93.6212C40.7621 93.5354 40.7188 93.4201 40.7188 93.3C40.7188 93.18 40.7621 93.0647 40.8394 92.9789C40.9168 92.893 41.0221 92.8435 41.1327 92.8408H147.569C147.679 92.8435 147.785 92.893 147.862 92.9789C147.939 93.0647 147.983 93.18 147.983 93.3C147.983 93.4201 147.939 93.5354 147.862 93.6212C147.785 93.7071 147.679 93.7566 147.569 93.7593Z" fill="#1D3557"/>
<path d="M48.378 90.4962C49.748 90.4962 50.8585 89.2644 50.8585 87.745C50.8585 86.2255 49.748 84.9938 48.378 84.9938C47.008 84.9938 45.8975 86.2255 45.8975 87.745C45.8975 89.2644 47.008 90.4962 48.378 90.4962Z" fill="#1D3557"/>
<path d="M56.9473 90.4962C58.3173 90.4962 59.4279 89.2644 59.4279 87.745C59.4279 86.2255 58.3173 84.9938 56.9473 84.9938C55.5774 84.9938 54.4668 86.2255 54.4668 87.745C54.4668 89.2644 55.5774 90.4962 56.9473 90.4962Z" fill="#1D3557"/>
<path d="M65.5167 90.4962C66.8866 90.4962 67.9972 89.2644 67.9972 87.745C67.9972 86.2255 66.8866 84.9938 65.5167 84.9938C64.1467 84.9938 63.0361 86.2255 63.0361 87.745C63.0361 89.2644 64.1467 90.4962 65.5167 90.4962Z" fill="#1D3557"/>
<path d="M142.409 85.6741H136.323C136.203 85.6772 136.088 85.7312 136.004 85.8246C135.92 85.9179 135.873 86.0433 135.873 86.1739C135.873 86.3045 135.92 86.4299 136.004 86.5232C136.088 86.6166 136.203 86.6706 136.323 86.6737H142.409C142.53 86.6718 142.646 86.6183 142.731 86.5248C142.816 86.4313 142.864 86.3052 142.864 86.1739C142.864 86.0426 142.816 85.9165 142.731 85.823C142.646 85.7295 142.53 85.676 142.409 85.6741Z" fill="#1D3557"/>
<path d="M142.409 87.5511H136.323C136.202 87.554 136.088 87.6079 136.003 87.7013C135.919 87.7947 135.872 87.9202 135.872 88.0509C135.872 88.1815 135.919 88.307 136.003 88.4004C136.088 88.4938 136.202 88.5477 136.323 88.5506H142.409C142.53 88.549 142.646 88.4957 142.731 88.4021C142.816 88.3086 142.864 88.1824 142.864 88.0509C142.864 87.9193 142.816 87.7931 142.731 87.6996C142.646 87.606 142.53 87.5527 142.409 87.5511Z" fill="#1D3557"/>
<path d="M142.409 89.428H136.323C136.203 89.431 136.088 89.485 136.004 89.5784C135.92 89.6718 135.873 89.7972 135.873 89.9277C135.873 90.0583 135.92 90.1837 136.004 90.2771C136.088 90.3705 136.203 90.4245 136.323 90.4275H142.409C142.53 90.4256 142.646 90.3722 142.731 90.2787C142.816 90.1851 142.864 90.0591 142.864 89.9277C142.864 89.7964 142.816 89.6703 142.731 89.5768C142.646 89.4833 142.53 89.4298 142.409 89.428Z" fill="#1D3557"/>
<path d="M289.138 200.258C289.322 200.838 289.67 201.341 290.133 201.693C290.597 202.044 291.151 202.228 291.716 202.217L302.759 201.909C303.329 201.897 303.879 201.685 304.329 201.305C304.778 200.926 305.102 200.399 305.253 199.803L306.815 181.672C307.37 181.945 307.974 182.079 308.582 182.066C309.111 182.051 309.632 181.924 310.115 181.691C310.599 181.459 311.035 181.125 311.399 180.709C311.764 180.293 312.049 179.803 312.239 179.268C312.43 178.733 312.521 178.162 312.507 177.588C312.494 177.014 312.377 176.449 312.162 175.925C311.947 175.4 311.64 174.927 311.257 174.531C310.873 174.136 310.422 173.826 309.928 173.62C309.435 173.414 308.909 173.315 308.38 173.329C308.137 173.329 307.894 173.356 307.656 173.411C307.397 173.107 307.083 172.866 306.733 172.702C306.383 172.538 306.005 172.456 305.624 172.46L288.637 172.936C288.496 172.942 288.356 172.96 288.218 172.992C287.845 173.068 287.492 173.229 287.182 173.465C286.871 173.701 286.611 174.006 286.419 174.36C286.226 174.714 286.106 175.109 286.066 175.518C286.026 175.927 286.067 176.34 286.186 176.73L289.138 200.258ZM307.136 180.441L308.248 176.121C308.374 175.621 308.377 175.095 308.256 174.594C308.31 174.594 308.358 174.566 308.412 174.566C309.174 174.549 309.912 174.861 310.463 175.433C311.014 176.005 311.334 176.791 311.352 177.618C311.369 178.445 311.084 179.246 310.558 179.846C310.033 180.445 309.309 180.794 308.547 180.815C308.054 180.832 307.566 180.703 307.136 180.441Z" fill="#2F2E41"/>
<path d="M288.217 172.992C288.579 175.238 292.648 176.816 297.54 176.542C302.04 176.317 305.718 174.603 306.392 172.571C306.143 172.491 305.883 172.454 305.623 172.46L288.636 172.936C288.495 172.942 288.355 172.96 288.217 172.992Z" fill="#1D3557"/>
<path d="M298.438 190.295C298.46 190.289 298.481 190.279 298.501 190.265L300.899 188.562C300.928 188.542 300.952 188.514 300.968 188.481C300.985 188.448 300.993 188.411 300.993 188.373C300.993 188.336 300.985 188.299 300.968 188.266C300.952 188.233 300.928 188.205 300.899 188.184L298.406 186.413C298.383 186.396 298.358 186.385 298.331 186.379C298.304 186.374 298.276 186.374 298.249 186.38C298.222 186.386 298.197 186.398 298.174 186.414C298.152 186.431 298.132 186.452 298.117 186.477C298.102 186.502 298.092 186.53 298.087 186.559C298.082 186.589 298.082 186.619 298.087 186.648C298.093 186.677 298.104 186.704 298.12 186.729C298.135 186.754 298.155 186.775 298.178 186.791L300.404 188.373L298.272 189.887C298.231 189.916 298.201 189.961 298.187 190.012C298.173 190.063 298.176 190.118 298.196 190.167C298.216 190.216 298.251 190.256 298.295 190.279C298.339 190.303 298.39 190.309 298.438 190.295H298.438Z" fill="#E63946"/>
<path d="M294.65 190.485C294.69 190.474 294.726 190.45 294.754 190.417C294.782 190.383 294.799 190.341 294.805 190.297C294.811 190.252 294.804 190.207 294.786 190.166C294.767 190.126 294.738 190.092 294.702 190.07L292.492 188.695L294.628 186.973C294.65 186.955 294.669 186.933 294.683 186.907C294.697 186.882 294.706 186.854 294.71 186.824C294.714 186.795 294.713 186.765 294.706 186.736C294.699 186.707 294.688 186.68 294.671 186.656C294.655 186.633 294.634 186.613 294.611 186.597C294.587 186.582 294.561 186.572 294.534 186.568C294.507 186.563 294.48 186.565 294.453 186.572C294.427 186.579 294.402 186.592 294.38 186.61L291.988 188.538C291.96 188.56 291.938 188.59 291.923 188.624C291.908 188.658 291.902 188.695 291.904 188.733C291.906 188.77 291.916 188.806 291.935 188.838C291.953 188.87 291.978 188.897 292.008 188.915L294.495 190.462C294.542 190.491 294.597 190.499 294.65 190.485Z" fill="#E63946"/>
<path d="M298.199 191.788C298.219 191.783 298.239 191.774 298.256 191.762C298.28 191.746 298.3 191.726 298.316 191.702C298.333 191.678 298.344 191.651 298.351 191.622C298.357 191.593 298.358 191.563 298.354 191.534C298.35 191.505 298.34 191.476 298.326 191.451L294.926 185.387C294.898 185.336 294.851 185.299 294.798 185.285C294.744 185.271 294.687 185.28 294.64 185.312C294.593 185.343 294.559 185.393 294.546 185.451C294.533 185.51 294.542 185.571 294.57 185.622L297.97 191.687C297.993 191.728 298.028 191.76 298.069 191.778C298.111 191.796 298.156 191.8 298.199 191.788Z" fill="#E63946"/>
<path d="M107.069 118.725H88.6469C87.8954 118.725 87.2861 119.386 87.2861 120.201V122.154C87.2861 122.969 87.8954 123.63 88.6469 123.63H107.069C107.82 123.63 108.429 122.969 108.429 122.154V120.201C108.429 119.386 107.82 118.725 107.069 118.725Z" fill="#E63946"/>
<path d="M117.806 128.535H77.9086C77.1571 128.535 76.5479 129.196 76.5479 130.012V131.964C76.5479 132.779 77.1571 133.44 77.9086 133.44H117.806C118.558 133.44 119.167 132.779 119.167 131.964V130.012C119.167 129.196 118.558 128.535 117.806 128.535Z" fill="#E6E6E6"/>
<path d="M117.806 138.346H77.9086C77.1571 138.346 76.5479 139.007 76.5479 139.822V141.775C76.5479 142.59 77.1571 143.251 77.9086 143.251H117.806C118.558 143.251 119.167 142.59 119.167 141.775V139.822C119.167 139.007 118.558 138.346 117.806 138.346Z" fill="#E6E6E6"/>
<path d="M121.188 171.197L121.279 171.507L121.284 171.517L124.004 180.489L127.133 190.829L133.02 210.259L133.077 213.277V213.288L133.515 237.568L132.302 240.86L133.667 246.256C133.667 246.256 133.039 238.099 129.672 242.783C127.765 245.446 125.535 248.17 123.704 250.724C126.372 251.895 129.083 252.954 131.836 253.902C132.43 254.108 133.03 254.304 133.629 254.5C133.757 254.542 133.886 254.583 134.014 254.624C143.141 257.553 152.577 259.198 162.09 259.52C162.585 259.536 163.07 259.546 163.541 259.557C163.707 259.562 163.869 259.567 164.031 259.567C164.563 259.572 165.091 259.577 165.624 259.577C166.699 259.577 167.769 259.56 168.834 259.526C176.718 259.285 184.556 258.134 192.216 256.095C192.164 252.664 192.022 248.655 191.817 244.372C191.722 242.273 189.587 239.997 189.458 237.799C189.368 236.148 191.284 234.595 191.185 232.919C190.538 222.595 189.729 226.558 189.13 219.247C189.068 218.53 189.011 217.843 188.959 217.188C188.574 212.493 188.308 209.557 188.308 209.557L190.866 192.062L194.884 164.593L194.575 164.041L194.228 163.855L173.033 152.474L171.882 149.275C171.547 148.353 170.965 147.562 170.212 147.002C169.458 146.442 168.568 146.139 167.654 146.133L153.692 146.071C152.968 146.067 152.253 146.251 151.607 146.608C150.961 146.964 150.403 147.482 149.978 148.119L146.198 153.8L121.188 171.197Z" fill="#1D3557"/>
<path d="M136.24 205.935L133.077 213.277L130.918 218.292L127.204 239.389L125.345 241.53L123.752 233.95L107.078 237.967C106.531 234.67 106.931 238.079 106.594 234.462C106.689 234.359 106.789 234.255 106.889 234.152C107.155 233.884 107.378 233.631 107.374 233.389C107.183 220.913 107.754 199.682 112.519 186.82C113.265 184.72 114.249 182.728 115.448 180.892C115.544 180.752 115.634 180.613 115.724 180.474C117.921 177.136 119.31 173.849 121.279 171.512V171.507C121.291 171.496 121.302 171.484 121.312 171.471C121.319 171.467 121.326 171.462 121.331 171.455L134.856 163.675L135.436 181.361L135.85 194.074L136.24 205.935Z" fill="#1D3557"/>
<path d="M185.007 208.021L188.957 217.191L190.336 220.384L194.049 241.479L195.902 243.615L197.499 236.037L198.249 235.87L211.78 232.83L215.724 246.419C216.613 244.812 216.963 242.921 216.715 241.067C216.467 239.212 215.637 237.507 214.364 236.24C214.095 235.976 213.871 235.718 213.877 235.475C214.101 220.802 213.274 194.009 205.803 182.981C203.431 179.481 202.007 175.996 199.936 173.561C199.929 173.554 199.929 173.547 199.923 173.547L194.882 164.593L194.575 164.043L194.228 163.855L185.007 208.021Z" fill="#1D3557"/>
<path d="M161.076 141.76C171.335 141.76 179.651 132.737 179.651 121.607C179.651 110.477 171.335 101.455 161.076 101.455C150.817 101.455 142.501 110.477 142.501 121.607C142.501 132.737 150.817 141.76 161.076 141.76Z" fill="#FFB6B6"/>
<path d="M186.182 107.531C186.038 107.364 185.865 107.23 185.672 107.138C185.479 107.045 185.272 106.996 185.061 106.993L185.34 106.151C185.431 105.886 185.456 105.6 185.411 105.321C185.367 105.042 185.255 104.782 185.087 104.565C184.919 104.349 184.701 104.185 184.456 104.09C184.21 103.995 183.946 103.973 183.689 104.026L182.672 104.238L182.768 103.501C182.805 103.226 182.775 102.946 182.682 102.688C182.588 102.43 182.435 102.202 182.236 102.028C182.037 101.853 181.8 101.738 181.547 101.694C181.295 101.649 181.036 101.676 180.796 101.773C180.578 101.866 180.344 101.905 180.11 101.887C179.876 101.869 179.649 101.795 179.446 101.669C179.241 101.548 179.064 101.379 178.925 101.175C178.787 100.971 178.692 100.737 178.645 100.489L178.291 98.6345L178.253 98.535C176.528 95.4143 173.209 93.1438 169.149 92.3116C165.535 91.5654 161.829 91.9453 158.256 92.3026C156.839 92.4473 155.238 92.6101 153.904 93.4966C152.77 94.2564 151.812 95.7761 152.007 97.3093C148.485 96.1379 144.708 98.4762 142.836 101.425C140.619 104.935 140.256 109.331 140.198 112.768C140.039 120.9 141.586 127.553 144.783 132.546C145.017 132.908 145.075 133.663 145.538 133.916L145.442 133.749C145.959 134.03 146.484 134.482 146.288 134.966C145.725 136.359 149.465 139.439 152.099 140.456C156.906 142.315 163.296 142.157 167.79 141.488L167.948 140.334C169.57 140.095 170.712 139.638 171.033 138.923C171.6 138.399 172.084 137.928 172.505 137.494L172.509 137.489C172.517 137.48 172.534 137.467 172.542 137.458C174.572 135.346 175.044 134.143 175.256 132.311C175.46 130.515 175.098 128.693 174.727 127.051C182.539 128.363 171.65 118.024 178.929 116.024C179.012 115.997 179.097 115.974 179.183 115.957C179.396 115.902 179.608 115.848 179.813 115.785C180.797 115.495 181.74 115.058 182.614 114.487C184.648 113.143 185.319 111.362 186.37 109.353C186.521 109.067 186.585 108.737 186.551 108.409C186.518 108.081 186.388 107.773 186.182 107.531Z" fill="#2F2E41"/>
<path d="M226.773 209.456C226.769 210.247 226.761 211.355 226.727 212.726C226.723 212.915 226.719 213.11 226.715 213.309C226.661 215.828 226.606 217.94 226.519 220.288C226.515 220.45 226.511 220.609 226.502 220.771C226.385 224.046 226.202 227.859 225.885 233.897C225.297 245.05 224.272 235.43 223.242 239.342C223.192 239.536 223.138 239.767 223.088 240.038C222.932 241.023 222.669 241.984 222.304 242.901C221.758 243.254 221.195 243.593 220.641 243.933C219.061 244.887 217.456 245.805 215.839 246.678C214.93 247.166 214.017 247.646 213.1 248.107C212.954 248.179 212.812 248.252 212.671 248.32C207.974 250.676 203.134 252.68 198.184 254.317C197.217 254.633 196.254 254.941 195.279 255.226C194.262 255.533 193.244 255.823 192.215 256.094C184.555 258.134 176.717 259.285 168.833 259.527C167.77 259.563 166.698 259.577 165.623 259.577C165.089 259.577 164.564 259.572 164.03 259.568C163.868 259.568 163.705 259.563 163.543 259.559C163.072 259.545 162.584 259.536 162.092 259.522C152.579 259.201 143.143 257.554 134.016 254.624L133.628 254.502C133.028 254.303 132.432 254.109 131.836 253.901C129.084 252.955 126.373 251.897 123.703 250.726C121.664 249.835 119.649 248.879 117.658 247.858C117.64 247.853 117.623 247.844 117.608 247.831C117.191 247.623 116.77 247.406 116.353 247.184C116.299 247.153 116.241 247.121 116.182 247.089C114.627 246.266 113.089 245.404 111.568 244.502C110.288 241.314 108.487 240.703 107.37 237.899C107.045 237.066 106.81 236.195 106.669 235.303C106.669 235.294 106.665 235.285 106.665 235.271C106.782 236.954 106.169 232.286 106.661 235.253C106.657 235.199 106.653 235.14 106.649 235.072C106.636 234.91 106.619 234.711 106.594 234.462C105.164 219.315 105.256 201.993 104.635 187.719C104.593 186.797 104.55 185.913 104.506 185.069C104.493 184.788 104.477 184.513 104.46 184.241C104.489 184.16 104.522 184.074 104.56 183.992C104.568 183.969 104.578 183.946 104.589 183.925C104.601 183.897 104.615 183.869 104.631 183.843C104.639 183.83 104.652 183.812 104.66 183.798C104.666 183.782 104.673 183.767 104.681 183.753C104.718 183.689 104.76 183.622 104.806 183.558C104.827 183.531 104.843 183.508 104.864 183.486C104.879 183.463 104.895 183.442 104.914 183.423C104.927 183.401 104.943 183.381 104.96 183.364C104.977 183.346 104.994 183.323 105.014 183.3C105.023 183.286 105.035 183.274 105.048 183.264C105.081 183.223 105.117 183.185 105.156 183.151C105.305 183.003 105.464 182.867 105.631 182.744C105.69 182.703 105.752 182.663 105.811 182.618C106.231 182.345 106.673 182.115 107.132 181.93C107.29 181.867 107.449 181.808 107.62 181.745C107.682 181.727 107.741 181.704 107.803 181.681C107.895 181.65 107.987 181.618 108.083 181.595C108.558 181.442 109.071 181.31 109.625 181.188C109.692 181.175 109.763 181.161 109.833 181.143C109.933 181.121 110.038 181.102 110.142 181.084C110.284 181.057 110.43 181.03 110.575 181.003C111.814 180.79 113.218 180.632 114.769 180.528C114.915 180.519 115.061 180.51 115.207 180.501C115.378 180.492 115.549 180.483 115.724 180.474C115.87 180.465 116.02 180.46 116.17 180.456C116.316 180.447 116.466 180.442 116.62 180.438C117.041 180.424 117.475 180.41 117.916 180.401C119.175 180.374 120.501 180.383 121.893 180.415C122.54 180.433 123.198 180.451 123.874 180.483C123.919 180.483 123.961 180.487 124.003 180.487C124.591 180.51 125.182 180.537 125.791 180.573C126.216 180.596 126.646 180.618 127.075 180.646C127.479 180.673 127.888 180.7 128.301 180.732C128.622 180.75 128.943 180.777 129.268 180.799C129.543 180.822 129.818 180.845 130.093 180.863L130.468 180.89C130.673 180.908 130.877 180.922 131.085 180.944C131.544 180.985 132.002 181.026 132.469 181.066C132.932 181.111 133.403 181.157 133.874 181.202C134.345 181.247 134.82 181.297 135.296 181.347C135.346 181.351 135.392 181.356 135.437 181.36C135.871 181.41 136.304 181.455 136.742 181.505C136.842 181.514 136.946 181.523 137.047 181.537C137.464 181.582 137.889 181.635 138.31 181.684C138.44 181.699 138.568 181.714 138.698 181.729C139.028 181.768 139.353 181.802 139.685 181.844C140.123 181.898 140.569 181.948 141.003 182.011C141.34 182.052 141.678 182.093 142.016 182.138C142.545 182.206 143.083 182.278 143.62 182.355C143.825 182.382 144.029 182.409 144.233 182.441C145.767 182.649 147.318 182.88 148.894 183.12C151.283 183.486 153.709 183.884 156.152 184.314C158.599 184.743 161.059 185.197 163.534 185.675C164.16 185.797 164.785 185.919 165.414 186.046C165.698 186.105 165.981 186.163 166.265 186.222C166.748 186.317 167.232 186.417 167.715 186.516C168.199 186.616 168.683 186.715 169.166 186.819C169.741 186.941 170.321 187.063 170.896 187.185C174.685 188 178.454 188.868 182.131 189.777C182.735 189.926 183.34 190.08 183.94 190.229C185.141 190.532 186.33 190.84 187.508 191.152C187.833 191.233 188.154 191.319 188.475 191.405C189.276 191.622 190.076 191.839 190.864 192.061L191.002 192.102C191.581 192.255 192.148 192.414 192.715 192.577C194.053 192.957 195.369 193.341 196.663 193.73C197.521 193.988 198.371 194.249 199.21 194.512C200.465 194.906 201.694 195.304 202.891 195.706C203.187 195.806 203.483 195.905 203.775 196C204.65 196.294 205.513 196.593 206.351 196.891C207.018 197.127 207.668 197.366 208.31 197.606C208.952 197.846 209.581 198.085 210.198 198.325C210.594 198.479 210.986 198.642 211.378 198.795C211.941 199.022 212.495 199.248 213.037 199.474C213.204 199.542 213.367 199.614 213.529 199.682C213.633 199.732 213.733 199.772 213.834 199.818C214.029 199.903 214.23 199.985 214.421 200.071C214.617 200.152 214.809 200.238 215.001 200.329C215.188 200.41 215.38 200.496 215.564 200.582C215.751 200.663 215.935 200.749 216.118 200.84C216.272 200.908 216.422 200.98 216.568 201.052C216.864 201.192 217.16 201.333 217.448 201.477C217.59 201.55 217.731 201.618 217.873 201.69L218.198 201.853C218.244 201.88 218.29 201.903 218.336 201.925C218.44 201.979 218.548 202.038 218.653 202.093C218.894 202.215 219.132 202.346 219.365 202.468C219.678 202.64 219.982 202.812 220.274 202.979C220.57 203.151 220.858 203.323 221.133 203.49C221.179 203.517 221.22 203.544 221.266 203.571C221.329 203.608 221.391 203.648 221.454 203.685C221.666 203.816 221.871 203.951 222.075 204.083C222.475 204.349 222.855 204.612 223.209 204.874C223.288 204.933 223.363 204.992 223.442 205.046C223.705 205.249 223.955 205.448 224.189 205.652C224.189 205.656 224.189 205.656 224.193 205.656C224.272 205.72 224.347 205.788 224.422 205.851C224.485 205.914 224.551 205.968 224.614 206.032C224.83 206.235 225.031 206.43 225.214 206.629C225.276 206.69 225.334 206.755 225.389 206.823C225.413 206.845 225.436 206.869 225.456 206.896C225.539 206.986 225.614 207.077 225.685 207.167C225.696 207.179 225.706 207.193 225.714 207.208C225.814 207.334 225.906 207.461 225.994 207.588C226.035 207.651 226.081 207.714 226.119 207.778C226.169 207.854 226.219 207.936 226.26 208.013C226.298 208.076 226.331 208.144 226.365 208.207C226.453 208.37 226.528 208.541 226.59 208.718C226.637 208.838 226.674 208.962 226.702 209.089C226.734 209.209 226.758 209.332 226.773 209.456Z" fill="#2F2E41"/>
<path opacity="0.2" d="M226.772 209.456C226.768 210.247 226.76 211.355 226.727 212.726C226.722 212.915 226.714 213.11 226.71 213.309C226.668 215.231 226.606 217.606 226.518 220.288C226.514 220.45 226.51 220.609 226.502 220.771C226.385 224.046 226.201 227.859 225.885 233.897C225.297 245.05 224.271 235.43 223.242 239.342C220.382 237.433 217.247 235.434 213.895 233.381C213.291 233.01 212.681 232.638 212.065 232.264C205.362 228.207 197.875 223.955 190.059 219.745C189.75 219.577 189.438 219.41 189.129 219.247C171.225 209.646 151.682 200.306 135.849 194.074C132.794 192.871 129.876 191.785 127.133 190.831C121.355 188.827 116.361 187.425 112.517 186.819C108.515 186.186 105.752 186.412 104.634 187.719C104.593 186.797 104.55 185.913 104.505 185.069C104.488 184.788 104.472 184.513 104.455 184.241C104.481 184.167 104.514 184.096 104.547 184.024C104.551 184.014 104.555 184.003 104.559 183.992C104.567 183.969 104.577 183.946 104.588 183.925C104.601 183.897 104.615 183.869 104.63 183.843C104.644 183.811 104.66 183.781 104.68 183.753C104.718 183.689 104.759 183.622 104.805 183.558C104.839 183.511 104.875 183.465 104.914 183.423C104.926 183.401 104.942 183.381 104.959 183.364C104.976 183.346 104.993 183.323 105.014 183.3C105.023 183.286 105.034 183.274 105.047 183.264C105.08 183.223 105.116 183.185 105.155 183.151C105.304 183.003 105.463 182.867 105.631 182.744C105.689 182.703 105.752 182.663 105.81 182.617C106.23 182.345 106.672 182.115 107.131 181.93C107.29 181.867 107.448 181.808 107.619 181.745C107.682 181.727 107.74 181.704 107.803 181.681C107.894 181.65 107.986 181.618 108.082 181.595C108.557 181.442 109.07 181.31 109.624 181.188C109.791 181.152 109.966 181.116 110.141 181.084C110.283 181.057 110.429 181.03 110.575 181.003C111.813 180.79 113.218 180.632 114.768 180.528C114.914 180.519 115.06 180.51 115.206 180.501C115.377 180.492 115.548 180.483 115.723 180.474C115.869 180.465 116.019 180.46 116.169 180.456C116.315 180.447 116.465 180.442 116.619 180.438C117.04 180.424 117.474 180.41 117.916 180.401C119.175 180.379 120.5 180.388 121.893 180.419C122.539 180.433 123.197 180.456 123.873 180.487C123.914 180.487 123.96 180.492 124.002 180.492C124.59 180.51 125.186 180.542 125.79 180.573C126.216 180.596 126.645 180.618 127.074 180.646C127.479 180.673 127.887 180.7 128.3 180.732C128.621 180.75 128.942 180.777 129.267 180.799C129.542 180.822 129.817 180.845 130.092 180.863C130.422 180.89 130.751 180.917 131.085 180.944C131.543 180.985 132.002 181.025 132.469 181.066C132.931 181.111 133.402 181.157 133.873 181.202C134.344 181.247 134.82 181.297 135.295 181.347C135.345 181.351 135.391 181.356 135.437 181.36C135.87 181.41 136.304 181.455 136.741 181.505C139.168 181.772 141.665 182.084 144.233 182.441C145.767 182.654 147.32 182.881 148.893 183.124C151.282 183.49 153.708 183.888 156.151 184.314C158.598 184.743 161.059 185.197 163.534 185.675C164.159 185.797 164.784 185.919 165.414 186.046C166.181 186.2 166.948 186.356 167.715 186.516C168.198 186.616 168.682 186.715 169.165 186.819C169.741 186.941 170.32 187.063 170.895 187.185C174.685 188 178.453 188.868 182.13 189.777C182.735 189.926 183.339 190.08 183.939 190.229C185.14 190.532 186.329 190.84 187.508 191.152C187.833 191.238 188.154 191.324 188.475 191.41C189.279 191.627 190.076 191.844 190.863 192.061V192.066C190.909 192.075 190.955 192.088 191.001 192.102C191.576 192.26 192.147 192.418 192.714 192.581C194.052 192.961 195.368 193.344 196.662 193.73C197.521 193.992 198.371 194.25 199.209 194.512C200.464 194.91 201.694 195.308 202.89 195.706C203.186 195.806 203.482 195.905 203.774 196C204.649 196.299 205.508 196.596 206.35 196.891C207.017 197.126 207.667 197.366 208.309 197.606C208.951 197.846 209.581 198.085 210.198 198.325C210.598 198.479 210.99 198.637 211.378 198.791C211.944 199.017 212.495 199.243 213.037 199.474C213.203 199.542 213.366 199.614 213.529 199.682C213.833 199.809 214.129 199.94 214.421 200.071C214.617 200.152 214.808 200.238 215 200.329C215.188 200.41 215.379 200.496 215.563 200.582C215.75 200.663 215.934 200.749 216.117 200.84C216.272 200.908 216.422 200.98 216.568 201.052C216.864 201.192 217.159 201.333 217.447 201.477C217.589 201.55 217.731 201.618 217.872 201.69L218.197 201.853C218.243 201.88 218.289 201.903 218.335 201.925C218.689 202.106 219.031 202.287 219.365 202.468C219.677 202.64 219.982 202.812 220.273 202.979C220.619 203.178 220.949 203.372 221.266 203.571C221.328 203.608 221.391 203.648 221.453 203.684C221.666 203.816 221.87 203.951 222.074 204.082C222.475 204.349 222.854 204.612 223.208 204.874C223.558 205.136 223.884 205.394 224.188 205.652C224.188 205.656 224.188 205.656 224.192 205.656C224.338 205.783 224.48 205.91 224.613 206.032C224.83 206.235 225.03 206.43 225.213 206.629C225.275 206.69 225.333 206.755 225.388 206.823C225.413 206.845 225.435 206.869 225.455 206.896C225.543 207 225.63 207.104 225.714 207.208C225.814 207.334 225.905 207.461 225.993 207.588C226.035 207.651 226.08 207.714 226.118 207.778C226.168 207.854 226.218 207.936 226.26 208.013C226.297 208.076 226.331 208.144 226.364 208.207C226.452 208.37 226.528 208.541 226.589 208.718C226.635 208.839 226.672 208.963 226.702 209.089C226.733 209.209 226.757 209.332 226.772 209.456Z" fill="black"/>
</g>
<defs>
<clipPath id="clip0_466_1037">
<rect width="328" height="258.818" fill="white" transform="translate(0 0.758972)"/>
</clipPath>
</defs>
</svg>
